<?xml version="1.0" encoding="UTF-8" standalone="no"?> <svg xmlns="http://www.w3.org/2000/svg" width="14" height="16" viewBox="0 0 14 16">
  <path id="hand-peace-emoji" d="M11.317,6a2.063,2.063,0,0,0-2.031-.948V2.312a2.286,2.286,0,1,0-4.571,0L5,5.25,4.416,2.786A2.278,2.278,0,0,0,1.444,1.475,2.32,2.32,0,0,0,.156,4.464L1.9,8.993a2.173,2.173,0,0,0-.773,2.882L2.84,14.937A2.071,2.071,0,0,0,4.643,16h6.428a2.077,2.077,0,0,0,2.017-1.619l.857-3.719A2.119,2.119,0,0,0,14,10.188V8A2.078,2.078,0,0,0,11.317,6ZM12.5,10.187a.617.617,0,0,1-.016.138l-.857,3.719a.574.574,0,0,1-.556.455H4.643a.57.57,0,0,1-.494-.3L2.435,11.142a.612.612,0,0,1,.141-.765l.833-.68a.5.5,0,0,0,.15-.567l-2-5.2a.79.79,0,1,1,1.46-.6L4.884,8.18a.5.5,0,0,0,.467.32h.363a.5.5,0,0,0,.5-.5V2.312a.786.786,0,1,1,1.571,0V8a.5.5,0,0,0,.5.5H8.5A.5.5,0,0,0,9,8V7.125a.572.572,0,1,1,1.143,0V8a.5.5,0,0,0,.5.5h.214a.5.5,0,0,0,.5-.5A.572.572,0,1,1,12.5,8v2.187Z" transform="translate(0)"/>
</svg>
